<svg width="31" height="30" viewBox="0 0 31 30" fill="none" xmlns="http://www.w3.org/2000/svg">
<path d="M6.13086 1.35938C5.18164 1.72852 4.37891 2.2207 3.57617 3.02344C2.77344 3.82031 2.28125 4.62891 1.91211 5.57227C1.55469 6.48633 1.31445 7.53516 1.24414 9.07031C1.17383 10.6055 1.15625 11.0977 1.15625 15.0117C1.15625 18.9258 1.17383 19.418 1.24414 20.9531C1.31445 22.4883 1.56055 23.5371 1.91211 24.4512C2.28125 25.4004 2.77344 26.2031 3.57617 27.0059C4.37891 27.8086 5.18164 28.3008 6.13086 28.6699C7.04492 29.0273 8.09375 29.2676 9.62891 29.3379C11.1641 29.4082 11.6563 29.4258 15.5703 29.4258C19.4844 29.4258 19.9766 29.4082 21.5117 29.3379C23.0469 29.2676 24.0957 29.0215 25.0098 28.6699C25.959 28.3008 26.7617 27.8086 27.5645 27.0059C28.3672 26.2031 28.8594 25.4004 29.2285 24.4512C29.5859 23.5371 29.8262 22.4883 29.8965 20.9531C29.9668 19.418 29.9844 18.9258 29.9844 15.0117C29.9844 11.0977 29.9668 10.6055 29.8965 9.07031C29.8262 7.53516 29.5801 6.48633 29.2285 5.57227C28.8594 4.62891 28.3672 3.82031 27.5703 3.02344C26.7676 2.2207 25.9648 1.72852 25.0156 1.35938C24.1016 1.00195 23.0527 0.761719 21.5176 0.691406C19.9824 0.621094 19.4902 0.603516 15.5762 0.603516C11.6621 0.603516 11.1699 0.621094 9.63477 0.691406C8.09375 0.755859 7.04492 1.00195 6.13086 1.35938ZM21.3945 3.28125C22.8008 3.3457 23.5625 3.58008 24.0723 3.7793C24.7461 4.04297 25.2266 4.35352 25.7305 4.85742C26.2344 5.36133 26.5449 5.8418 26.8086 6.51562C27.0078 7.02539 27.2422 7.78711 27.3066 9.19336C27.377 10.7109 27.3887 11.168 27.3887 15.0176C27.3887 18.8672 27.3711 19.3242 27.3066 20.8418C27.2422 22.248 27.0078 23.0098 26.8086 23.5195C26.5449 24.1934 26.2344 24.6738 25.7305 25.1777C25.2266 25.6816 24.7461 25.9922 24.0723 26.2559C23.5625 26.4551 22.8008 26.6895 21.3945 26.7539C19.877 26.8242 19.4199 26.8359 15.5703 26.8359C11.7207 26.8359 11.2637 26.8184 9.74609 26.7539C8.33984 26.6895 7.57812 26.4551 7.06836 26.2559C6.39453 25.9922 5.91406 25.6816 5.41016 25.1777C4.90625 24.6738 4.5957 24.1934 4.33203 23.5195C4.13281 23.0098 3.89844 22.248 3.83398 20.8418C3.76367 19.3242 3.75195 18.8672 3.75195 15.0176C3.75195 11.168 3.76953 10.7109 3.83398 9.19336C3.89844 7.78711 4.13281 7.02539 4.33203 6.51562C4.5957 5.8418 4.90625 5.36133 5.41016 4.85742C5.91406 4.35352 6.39453 4.04297 7.06836 3.7793C7.57812 3.58008 8.33984 3.3457 9.74609 3.28125C11.2637 3.21094 11.7207 3.19922 15.5703 3.19922C19.4199 3.19922 19.877 3.21094 21.3945 3.28125Z" fill="url(#paint0_radial_488_11156)"/>
<path d="M8.16992 15.0176C8.16992 19.1074 11.4863 22.418 15.5703 22.418C19.6543 22.418 22.9707 19.1016 22.9707 15.0176C22.9707 10.9336 19.6602 7.61719 15.5703 7.61719C11.4805 7.61719 8.16992 10.9277 8.16992 15.0176ZM20.375 15.0176C20.375 17.6719 18.2246 19.8223 15.5703 19.8223C12.916 19.8223 10.7656 17.6719 10.7656 15.0176C10.7656 12.3633 12.916 10.2129 15.5703 10.2129C18.2246 10.2129 20.375 12.3633 20.375 15.0176Z" fill="url(#paint1_radial_488_11156)"/>
<path d="M23.2695 9.05273C24.2242 9.05273 24.998 8.27885 24.998 7.32422C24.998 6.36959 24.2242 5.5957 23.2695 5.5957C22.3149 5.5957 21.541 6.36959 21.541 7.32422C21.541 8.27885 22.3149 9.05273 23.2695 9.05273Z" fill="#654C9F"/>
<defs>
<radialGradient id="paint0_radial_488_11156" cx="0" cy="0" r="1" gradientUnits="userSpaceOnUse" gradientTransform="translate(1.68078 26.787) rotate(-3.00009) scale(41.6786 35.4264)">
<stop stop-color="#FED576"/>
<stop offset="0.2634" stop-color="#F47133"/>
<stop offset="0.6091" stop-color="#BC3081"/>
<stop offset="1" stop-color="#4C63D2"/>
</radialGradient>
<radialGradient id="paint1_radial_488_11156" cx="0" cy="0" r="1" gradientUnits="userSpaceOnUse" gradientTransform="translate(8.43836 21.0608) rotate(-3.00009) scale(21.4025 18.1919)">
<stop stop-color="#FED576"/>
<stop offset="0.2634" stop-color="#F47133"/>
<stop offset="0.6091" stop-color="#BC3081"/>
<stop offset="1" stop-color="#4C63D2"/>
</radialGradient>
</defs>
</svg>
