<svg width="25" height="24" viewBox="0 0 25 24" fill="none" xmlns="http://www.w3.org/2000/svg">
<path d="M17.4897 9.70996H7.50977C7.09977 9.70996 6.75977 9.36996 6.75977 8.95996C6.75977 8.54996 7.09977 8.20996 7.50977 8.20996H17.4897C17.8997 8.20996 18.2397 8.54996 18.2397 8.95996C18.2397 9.36996 17.8997 9.70996 17.4897 9.70996Z" fill="#98A2B3"/>
<path d="M12.5 9.71027C12.09 9.71027 11.75 9.37027 11.75 8.96027V7.28027C11.75 6.87027 12.09 6.53027 12.5 6.53027C12.91 6.53027 13.25 6.87027 13.25 7.28027V8.96027C13.25 9.37027 12.91 9.71027 12.5 9.71027Z" fill="#98A2B3"/>
<path d="M7.5 17.4694C7.09 17.4694 6.75 17.1294 6.75 16.7194C6.75 16.3094 7.09 15.9694 7.5 15.9694C11.22 15.9694 14.25 12.8195 14.25 8.93945C14.25 8.52945 14.59 8.18945 15 8.18945C15.41 8.18945 15.75 8.52945 15.75 8.93945C15.75 13.6495 12.05 17.4694 7.5 17.4694Z" fill="#98A2B3"/>
<path d="M17.5002 17.4702C15.5302 17.4702 13.7002 16.4903 12.3602 14.7003C12.1102 14.3703 12.1802 13.9003 12.5102 13.6503C12.8402 13.4003 13.3102 13.4702 13.5602 13.8002C14.6202 15.2002 16.0202 15.9702 17.5102 15.9702C17.9202 15.9702 18.2602 16.3102 18.2602 16.7202C18.2602 17.1302 17.9102 17.4702 17.5002 17.4702Z" fill="#98A2B3"/>
<path d="M12.5 22.75C6.57 22.75 1.75 17.93 1.75 12C1.75 6.07 6.57 1.25 12.5 1.25C18.43 1.25 23.25 6.07 23.25 12C23.25 17.93 18.43 22.75 12.5 22.75ZM12.5 2.75C7.4 2.75 3.25 6.9 3.25 12C3.25 17.1 7.4 21.25 12.5 21.25C17.6 21.25 21.75 17.1 21.75 12C21.75 6.9 17.6 2.75 12.5 2.75Z" fill="#98A2B3"/>
</svg>
