<svg width="31" height="30" viewBox="0 0 31 30" fill="none" xmlns="http://www.w3.org/2000/svg">
<g clip-path="url(#clip0_488_11154)">
<mask id="mask0_488_11154" style="mask-type:luminance" maskUnits="userSpaceOnUse" x="0" y="0" width="31" height="30">
<path d="M30.5 0H0.5V30H30.5V0Z" fill="white"/>
</mask>
<g mask="url(#mask0_488_11154)">
<path d="M28.2854 0H2.71459C2.12724 0 1.56395 0.233321 1.14864 0.648636C0.733321 1.06395 0.5 1.62724 0.5 2.21459V27.7854C0.5 28.3727 0.733321 28.936 1.14864 29.3514C1.56395 29.7666 2.12724 30 2.71459 30H28.2854C28.8727 30 29.436 29.7666 29.8514 29.3514C30.2666 28.936 30.5 28.3727 30.5 27.7854V2.21459C30.5 1.62724 30.2666 1.06395 29.8514 0.648636C29.436 0.233321 28.8727 0 28.2854 0ZM9.44166 25.5562H4.93125V11.2292H9.44166V25.5562ZM7.18334 9.24375C6.6717 9.24088 6.1724 9.0865 5.74841 8.80011C5.32444 8.51373 4.9948 8.10816 4.8011 7.63461C4.60739 7.16106 4.55831 6.64074 4.66004 6.13931C4.76176 5.6379 5.00975 5.17785 5.3727 4.81722C5.73564 4.45661 6.19727 4.21159 6.69934 4.11308C7.2014 4.01456 7.72139 4.06699 8.19369 4.26374C8.66599 4.46047 9.06942 4.79271 9.35309 5.21851C9.63674 5.64432 9.7879 6.14461 9.7875 6.65625C9.79233 6.99879 9.72814 7.3388 9.59876 7.656C9.46939 7.97321 9.27748 8.26113 9.03446 8.50259C8.79145 8.74404 8.50231 8.9341 8.18427 9.06144C7.86625 9.18878 7.52584 9.25078 7.18334 9.24375ZM26.0666 25.5688H21.5584V17.7416C21.5584 15.4334 20.5771 14.7209 19.3104 14.7209C17.9729 14.7209 16.6604 15.7291 16.6604 17.8V25.5688H12.15V11.2396H16.4875V13.225H16.5459C16.9813 12.3438 18.5063 10.8375 20.8334 10.8375C23.35 10.8375 26.0688 12.3312 26.0688 16.7062L26.0666 25.5688Z" fill="#0A66C2"/>
</g>
</g>
<defs>
<clipPath id="clip0_488_11154">
<rect width="30" height="30" fill="white" transform="translate(0.5)"/>
</clipPath>
</defs>
</svg>
