<svg width="24" height="24" viewBox="0 0 24 24" fill="none" xmlns="http://www.w3.org/2000/svg">
<path d="M12 15.75C7.86 15.75 4.5 12.5 4.5 8.5C4.5 4.5 7.86 1.25 12 1.25C16.14 1.25 19.5 4.5 19.5 8.5C19.5 12.5 16.14 15.75 12 15.75ZM12 2.75C8.69 2.75 6 5.33 6 8.5C6 11.67 8.69 14.25 12 14.25C15.31 14.25 18 11.67 18 8.5C18 5.33 15.31 2.75 12 2.75Z" fill="#8C87A2"/>
<path d="M15.618 22.7501C15.338 22.7501 15.058 22.6801 14.768 22.5501L12.078 21.2801C12.048 21.2701 11.938 21.2701 11.898 21.2801L9.22806 22.5401C8.63806 22.8201 8.01806 22.8101 7.53806 22.5001C7.03806 22.1801 6.74806 21.5901 6.75806 20.8901L6.76804 13.5101C6.76804 13.1001 7.08804 12.7401 7.51804 12.7601C7.92804 12.7601 8.26804 13.1001 8.26804 13.5101L8.25806 20.8901C8.25806 21.1101 8.31806 21.2201 8.34806 21.2301C8.36806 21.2401 8.45806 21.2501 8.59806 21.1801L11.2781 19.9101C11.7081 19.7101 12.2981 19.7101 12.7281 19.9101L15.4181 21.1801C15.5581 21.2501 15.6481 21.2401 15.6681 21.2301C15.6981 21.2101 15.7581 21.1001 15.7581 20.8901V13.3301C15.7581 12.9201 16.0981 12.5801 16.5081 12.5801C16.9181 12.5801 17.2581 12.9201 17.2581 13.3301V20.8901C17.2581 21.6001 16.9681 22.1801 16.4681 22.5001C16.2081 22.6701 15.918 22.7501 15.618 22.7501Z" fill="#8C87A2"/>
</svg>
