<svg width="25" height="24" viewBox="0 0 25 24" fill="none" xmlns="http://www.w3.org/2000/svg">
<path d="M17.5 21.75H7.5C3.09 21.75 1.75 20.41 1.75 16V8C1.75 3.59 3.09 2.25 7.5 2.25H17.5C21.91 2.25 23.25 3.59 23.25 8V16C23.25 20.41 21.91 21.75 17.5 21.75ZM7.5 3.75C3.92 3.75 3.25 4.43 3.25 8V16C3.25 19.57 3.92 20.25 7.5 20.25H17.5C21.08 20.25 21.75 19.57 21.75 16V8C21.75 4.43 21.08 3.75 17.5 3.75H7.5Z" fill="#98A2B3"/>
<path d="M19.5 8.75H14.5C14.09 8.75 13.75 8.41 13.75 8C13.75 7.59 14.09 7.25 14.5 7.25H19.5C19.91 7.25 20.25 7.59 20.25 8C20.25 8.41 19.91 8.75 19.5 8.75Z" fill="#98A2B3"/>
<path d="M19.5 12.75H15.5C15.09 12.75 14.75 12.41 14.75 12C14.75 11.59 15.09 11.25 15.5 11.25H19.5C19.91 11.25 20.25 11.59 20.25 12C20.25 12.41 19.91 12.75 19.5 12.75Z" fill="#98A2B3"/>
<path d="M19.5 16.75H17.5C17.09 16.75 16.75 16.41 16.75 16C16.75 15.59 17.09 15.25 17.5 15.25H19.5C19.91 15.25 20.25 15.59 20.25 16C20.25 16.41 19.91 16.75 19.5 16.75Z" fill="#98A2B3"/>
<path d="M8.99994 12.0399C7.58994 12.0399 6.43994 10.8899 6.43994 9.47992C6.43994 8.06992 7.58994 6.91992 8.99994 6.91992C10.4099 6.91992 11.5599 8.06992 11.5599 9.47992C11.5599 10.8899 10.4099 12.0399 8.99994 12.0399ZM8.99994 8.41992C8.41994 8.41992 7.93994 8.89992 7.93994 9.47992C7.93994 10.0599 8.41994 10.5399 8.99994 10.5399C9.57994 10.5399 10.0599 10.0599 10.0599 9.47992C10.0599 8.89992 9.57994 8.41992 8.99994 8.41992Z" fill="#98A2B3"/>
<path d="M12.4999 17.0798C12.1199 17.0798 11.7899 16.7898 11.7499 16.3998C11.6399 15.3198 10.7699 14.4498 9.67991 14.3498C9.21991 14.3098 8.75991 14.3098 8.29991 14.3498C7.20991 14.4498 6.33991 15.3098 6.22991 16.3998C6.18991 16.8098 5.81991 17.1198 5.40991 17.0698C4.99991 17.0298 4.69991 16.6598 4.73991 16.2498C4.91991 14.4498 6.34991 13.0198 8.15991 12.8598C8.70991 12.8098 9.26991 12.8098 9.81991 12.8598C11.6199 13.0298 13.0599 14.4598 13.2399 16.2498C13.2799 16.6598 12.9799 17.0298 12.5699 17.0698C12.5499 17.0798 12.5199 17.0798 12.4999 17.0798Z" fill="#98A2B3"/>
</svg>
