<svg width="25" height="24" viewBox="0 0 25 24" fill="none" xmlns="http://www.w3.org/2000/svg">
<path d="M12.22 22.75H7.71997C3.56997 22.75 1.71997 20.9 1.71997 16.75V12.25C1.71997 8.1 3.56997 6.25 7.71997 6.25H12.22C16.37 6.25 18.22 8.1 18.22 12.25V16.75C18.22 20.9 16.37 22.75 12.22 22.75ZM7.71997 7.75C4.39997 7.75 3.21997 8.93 3.21997 12.25V16.75C3.21997 20.07 4.39997 21.25 7.71997 21.25H12.22C15.54 21.25 16.72 20.07 16.72 16.75V12.25C16.72 8.93 15.54 7.75 12.22 7.75H7.71997Z" fill="#98A2B3"/>
<path d="M17.47 13.7198C17.28 13.7198 17.1 13.6498 16.96 13.5198C16.8 13.3798 16.72 13.1798 16.72 12.9698V12.2498C16.72 8.92977 15.54 7.74977 12.22 7.74977H11.5C11.29 7.74977 11.09 7.65977 10.95 7.50977C10.81 7.34977 10.74 7.14977 10.76 6.93977C11.05 3.69977 13.72 1.25977 16.98 1.25977C20.1 1.25977 22.76 3.58977 23.16 6.67977C23.2 6.91977 23.23 7.20977 23.23 7.50977C23.23 10.7698 20.79 13.4398 17.55 13.7298C17.52 13.7198 17.5 13.7198 17.47 13.7198ZM12.39 6.24977C16.36 6.29977 18.17 8.09977 18.22 12.0798C20.26 11.5398 21.72 9.68977 21.72 7.49977C21.72 7.28977 21.7 7.08977 21.67 6.89977C21.36 4.51977 19.34 2.74977 16.97 2.74977C14.78 2.74977 12.94 4.20977 12.39 6.24977Z" fill="#98A2B3"/>
</svg>
