<svg width="21" height="20" viewBox="0 0 21 20" fill="none" xmlns="http://www.w3.org/2000/svg">
<g clip-path="url(#clip0_488_6422)">
<path d="M14.8135 7.2194C16.0997 8.14204 17.6752 8.68492 19.3769 8.68492V5.39868C19.0548 5.39875 18.7336 5.36505 18.4186 5.29805V7.88478C16.717 7.88478 15.1417 7.34191 13.8552 6.41934V13.1256C13.8552 16.4803 11.1452 19.1998 7.80257 19.1998C6.55534 19.1998 5.39609 18.8213 4.43311 18.1723C5.5322 19.3002 7.06496 19.9998 8.76071 19.9998C12.1036 19.9998 14.8137 17.2804 14.8137 13.9255L14.8135 7.2194ZM15.9957 3.904C15.3384 3.18336 14.9069 2.25206 14.8135 1.22248V0.799805H13.9053C14.1339 2.1084 14.9137 3.2264 15.9957 3.904ZM6.54734 15.598C6.18011 15.1148 5.98166 14.5237 5.98256 13.9158C5.98256 12.3815 7.22206 11.1374 8.75127 11.1374C9.03625 11.1373 9.31958 11.1812 9.59116 11.2677V7.90798C9.27375 7.86433 8.95341 7.8458 8.63321 7.85259V10.4676C8.36141 10.3811 8.078 10.3372 7.79293 10.3374C6.26371 10.3374 5.02428 11.5814 5.02428 13.1159C5.02428 14.201 5.64383 15.1404 6.54734 15.598Z" fill="#FF004F"/>
<path d="M13.8554 6.41927C15.1418 7.34185 16.7173 7.88471 18.4188 7.88471V5.29799C17.469 5.09495 16.6282 4.59684 15.9959 3.904C14.9138 3.22633 14.1342 2.10834 13.9056 0.799805H11.5201V13.9253C11.5147 15.4555 10.2773 16.6945 8.75135 16.6945C7.85214 16.6945 7.05329 16.2643 6.54735 15.598C5.64391 15.1404 5.02436 14.2009 5.02436 13.116C5.02436 11.5816 6.26379 10.3375 7.79301 10.3375C8.086 10.3375 8.3684 10.3833 8.63329 10.4677V7.85265C5.34934 7.92075 2.70825 10.6136 2.70825 13.9254C2.70825 15.5787 3.36594 17.0774 4.43339 18.1724C5.39638 18.8213 6.55563 19.1998 7.80285 19.1998C11.1456 19.1998 13.8554 16.4803 13.8554 13.1256V6.41927Z" fill="black"/>
<path d="M18.4188 5.29817V4.59873C17.5623 4.60004 16.7227 4.35932 15.996 3.90411C16.6393 4.61088 17.4863 5.09823 18.4188 5.29817ZM13.9056 0.799986C13.8838 0.674926 13.867 0.549043 13.8554 0.422678V0H10.5617V13.1257C10.5564 14.6557 9.31908 15.8947 7.79303 15.8947C7.345 15.8947 6.92198 15.7879 6.54738 15.5982C7.05331 16.2645 7.85216 16.6947 8.75137 16.6947C10.2772 16.6947 11.5148 15.4557 11.5201 13.9256V0.799986H13.9056ZM8.63345 7.85284V7.10824C8.35823 7.07049 8.08076 7.05155 7.80294 7.05168C4.45993 7.05162 1.75 9.77117 1.75 13.1257C1.75 15.2287 2.81505 17.0822 4.43348 18.1725C3.36603 17.0775 2.70834 15.5787 2.70834 13.9255C2.70834 10.6137 5.34937 7.92093 8.63345 7.85284Z" fill="#00F2EA"/>
</g>
<defs>
<clipPath id="clip0_488_6422">
<rect width="20" height="20" fill="white" transform="translate(0.5)"/>
</clipPath>
</defs>
</svg>
