<svg width="31" height="26" viewBox="0 0 31 26" fill="none" xmlns="http://www.w3.org/2000/svg">
<path d="M9.9344 25.1881C21.2552 25.1881 27.4472 15.8089 27.4472 7.67528C27.4472 7.40888 27.4472 7.14369 27.4292 6.87969C28.6338 6.00838 29.6736 4.92954 30.5 3.69368C29.3767 4.19169 28.185 4.51813 26.9648 4.66208C28.2498 3.89295 29.2114 2.68306 29.6708 1.25768C28.4626 1.97469 27.1408 2.47997 25.7624 2.75168C24.8344 1.76491 23.607 1.11149 22.2702 0.892539C20.9335 0.673593 19.5618 0.901327 18.3675 1.5405C17.1731 2.17967 16.2228 3.19465 15.6634 4.42837C15.1041 5.66209 14.9669 7.04576 15.2732 8.36528C12.8261 8.24253 10.4322 7.60657 8.24682 6.49869C6.06144 5.39081 4.13345 3.83576 2.588 1.93448C1.80091 3.28948 1.55984 4.89352 1.91387 6.42001C2.26791 7.94651 3.19043 9.28068 4.4936 10.1509C3.51404 10.1222 2.55581 9.85793 1.7 9.38048V9.45848C1.70039 10.8795 2.19231 12.2567 3.09234 13.3564C3.99236 14.4562 5.24508 15.2107 6.638 15.4921C5.73185 15.7393 4.78109 15.7754 3.8588 15.5977C4.25227 16.8206 5.01804 17.89 6.04905 18.6564C7.08006 19.4227 8.32478 19.8478 9.6092 19.8721C8.33305 20.8752 6.87164 21.6168 5.30859 22.0546C3.74554 22.4923 2.11152 22.6176 0.5 22.4233C3.31479 24.2296 6.58991 25.1877 9.9344 25.1833" fill="#1DA1F2"/>
</svg>
