<svg width="20" height="18" viewBox="0 0 20 18" fill="none" xmlns="http://www.w3.org/2000/svg">
<path d="M3.04346 2.86094L0.485352 5.1797L1.37048 6.29421C1.76465 6.04919 2.55301 5.40998 2.90457 5.40998C3.69292 5.40998 4.40162 7.54602 5.07787 9.89509C5.68511 12.0045 6.31366 17.2459 9.21137 17.2459C12.5459 17.2459 19.5558 8.24379 19.5558 4.23723C19.5558 2.7875 19.2682 0.701172 16.3811 0.701172C13.2874 0.701172 11.7653 3.68686 11.391 5.1797C11.6603 5.00018 12.3933 4.8805 12.7972 4.8805C14.4427 4.8805 14.0913 6.58618 13.8669 7.27432C13.6426 7.96247 11.9174 11.3132 10.9871 11.3132C9.85019 11.3132 9.17692 6.37647 8.84784 4.23723C8.51872 2.098 7.66602 0.931132 6.36452 0.931132C5.32333 0.931132 3.71665 2.21768 3.04346 2.86094Z" fill="#3CB9E6"/>
</svg>
