<svg width="25" height="24" viewBox="0 0 25 24" fill="none" xmlns="http://www.w3.org/2000/svg">
<path d="M23.3382 12.1309C22.9665 12.1309 22.7109 12.3864 22.7109 12.7581V19.4955C22.7109 19.7511 22.5483 19.8905 22.316 19.8905H3.68367C3.42812 19.8905 3.28873 19.7278 3.28873 19.4955V12.7581C3.28873 12.3864 3.03317 12.1309 2.66145 12.1309C2.28974 12.1309 2.03418 12.3864 2.03418 12.7581V19.4955C2.03418 20.448 2.75438 21.1682 3.70691 21.1682H22.3392C23.2918 21.1682 24.012 20.448 24.012 19.4955V12.7581C23.9887 12.3864 23.7332 12.1309 23.3382 12.1309Z" fill="#98A2B3"/>
<path d="M22.8273 4.88182H17.1354V4.55657C17.1354 3.67374 16.4616 3 15.5788 3H10.4212C9.53838 3 8.86465 3.67374 8.86465 4.55657V4.88182H3.17273C2.2202 4.88182 1.5 5.60202 1.5 6.55455V9.87677C1.5 10.6434 2.03434 11.3172 2.77778 11.4798L10.9323 13.2919V14.3838C10.9323 14.6859 11.1414 14.8949 11.4434 14.8949H14.5566C14.8586 14.8949 15.0677 14.6859 15.0677 14.3838V13.2919L23.2222 11.4798C23.9657 11.3172 24.5 10.6202 24.5 9.87677V6.55455C24.5 5.60202 23.7798 4.88182 22.8273 4.88182ZM23.2222 9.85354C23.2222 10.0626 23.1061 10.2253 22.897 10.2485L15.0677 12.0141V11.6889V11.2707C15.0677 10.9687 14.8586 10.7596 14.5566 10.7596H11.4434C11.1414 10.7596 10.9323 10.9687 10.9323 11.2707V11.6889V12.0141L3.0798 10.2485C2.89394 10.2253 2.77778 10.0626 2.77778 9.85354V6.55455C2.77778 6.29899 2.9404 6.1596 3.17273 6.1596H22.8273C23.0828 6.1596 23.2222 6.32222 23.2222 6.55455V9.85354Z" fill="#98A2B3"/>
</svg>
